<svg xmlns="http://www.w3.org/2000/svg" xmlns:xlink="http://www.w3.org/1999/xlink" width="1652" zoomAndPan="magnify" viewBox="0 0 1239 419.999985" height="560" preserveAspectRatio="xMidYMid meet" version="1.0"><defs><g/><clipPath id="4c71321953"><rect x="0" width="1129" y="0" height="240"/></clipPath><clipPath id="c1d59490c6"><rect x="0" width="778" y="0" height="81"/></clipPath></defs><g transform="matrix(1, 0, 0, 1, 55, 78)"><g clip-path="url(#4c71321953)"><g fill="#ffffff" fill-opacity="1"><g transform="translate(0.536295, 191.517417)"><g><path d="M 7.15625 0 L 7.15625 -166.84375 L 53.390625 -166.84375 C 60.066406 -166.84375 65.707031 -164.535156 70.3125 -159.921875 C 74.914062 -155.316406 77.21875 -149.675781 77.21875 -143 L 77.21875 -108.921875 C 77.21875 -104.472656 75.984375 -100.460938 73.515625 -96.890625 C 71.054688 -93.316406 67.921875 -90.65625 64.109375 -88.90625 C 67.921875 -87.15625 71.054688 -84.53125 73.515625 -81.03125 C 75.984375 -77.539062 77.21875 -73.570312 77.21875 -69.125 L 77.21875 -23.828125 C 77.21875 -17.160156 74.914062 -11.519531 70.3125 -6.90625 C 65.707031 -2.300781 60.066406 0 53.390625 0 Z M 37.1875 -25.265625 L 42.1875 -25.265625 C 43.613281 -25.265625 44.800781 -25.738281 45.75 -26.6875 C 46.707031 -27.644531 47.1875 -28.835938 47.1875 -30.265625 L 47.1875 -71.265625 C 47.1875 -72.691406 46.707031 -73.878906 45.75 -74.828125 C 44.800781 -75.785156 43.613281 -76.265625 42.1875 -76.265625 L 37.1875 -76.265625 Z M 37.1875 -101.53125 L 42.1875 -101.53125 C 43.613281 -101.53125 44.800781 -102.003906 45.75 -102.953125 C 46.707031 -103.910156 47.1875 -105.109375 47.1875 -106.546875 L 47.1875 -136.8125 C 47.1875 -138.238281 46.707031 -139.425781 45.75 -140.375 C 44.800781 -141.332031 43.613281 -141.8125 42.1875 -141.8125 L 37.1875 -141.8125 Z M 37.1875 -101.53125 "/></g></g></g><g fill="#ffffff" fill-opacity="1"><g transform="translate(84.911479, 191.517417)"><g><path d="M 30.984375 0 C 24.304688 0 18.664062 -2.300781 14.0625 -6.90625 C 9.457031 -11.519531 7.15625 -17.160156 7.15625 -23.828125 L 7.15625 -167.078125 L 37.1875 -167.078125 L 37.1875 -30.265625 C 37.1875 -28.835938 37.660156 -27.644531 38.609375 -26.6875 C 39.566406 -25.738281 40.757812 -25.265625 42.1875 -25.265625 C 43.613281 -25.265625 44.800781 -25.738281 45.75 -26.6875 C 46.707031 -27.644531 47.1875 -28.835938 47.1875 -30.265625 L 47.1875 -167.078125 L 77.21875 -167.078125 L 77.21875 -23.828125 C 77.21875 -17.160156 74.914062 -11.519531 70.3125 -6.90625 C 65.707031 -2.300781 60.066406 0 53.390625 0 Z M 30.984375 0 "/></g></g></g><g fill="#ffffff" fill-opacity="1"><g transform="translate(169.286663, 191.517417)"><g><path d="M 7.15625 0 L 7.15625 -133.953125 L 37.1875 -133.953125 L 37.1875 0 Z M 7.15625 -144.203125 L 7.15625 -166.84375 L 37.1875 -166.84375 L 37.1875 -144.203125 Z M 7.15625 -144.203125 "/></g></g></g><g fill="#ffffff" fill-opacity="1"><g transform="translate(213.61939, 191.517417)"><g><path d="M 7.15625 0 L 7.15625 -166.84375 L 37.1875 -166.84375 L 37.1875 -25.265625 L 57.671875 -25.265625 L 57.671875 0 Z M 7.15625 0 "/></g></g></g><g fill="#ffffff" fill-opacity="1"><g transform="translate(273.683046, 191.517417)"><g><path d="M 7.15625 0 L 7.15625 -166.84375 L 53.390625 -166.84375 C 60.066406 -166.84375 65.707031 -164.535156 70.3125 -159.921875 C 74.914062 -155.316406 77.21875 -149.675781 77.21875 -143 L 77.21875 -23.828125 C 77.21875 -17.160156 74.914062 -11.519531 70.3125 -6.90625 C 65.707031 -2.300781 60.066406 0 53.390625 0 Z M 37.1875 -25.265625 L 42.1875 -25.265625 C 43.613281 -25.265625 44.800781 -25.738281 45.75 -26.6875 C 46.707031 -27.644531 47.1875 -28.835938 47.1875 -30.265625 L 47.1875 -136.8125 C 47.1875 -138.238281 46.707031 -139.425781 45.75 -140.375 C 44.800781 -141.332031 43.613281 -141.8125 42.1875 -141.8125 L 37.1875 -141.8125 Z M 37.1875 -25.265625 "/></g></g></g><g fill="#ffffff" fill-opacity="1"><g transform="translate(358.058218, 191.517417)"><g><path d="M 7.15625 0 L 7.15625 -166.84375 L 53.390625 -166.84375 C 60.066406 -166.84375 65.707031 -164.535156 70.3125 -159.921875 C 74.914062 -155.316406 77.21875 -149.675781 77.21875 -143 L 77.21875 -86.75 C 76.90625 -82.625 75.554688 -78.890625 73.171875 -75.546875 C 70.785156 -72.210938 67.765625 -69.753906 64.109375 -68.171875 C 67.765625 -66.421875 70.785156 -63.914062 73.171875 -60.65625 C 75.554688 -57.394531 76.90625 -53.703125 77.21875 -49.578125 L 77.21875 0 L 47.1875 0 L 47.1875 -54.34375 L 37.1875 -54.34375 L 37.1875 0 Z M 37.1875 -79.609375 L 42.1875 -79.609375 C 43.613281 -79.609375 44.800781 -80.082031 45.75 -81.03125 C 46.707031 -81.988281 47.1875 -83.179688 47.1875 -84.609375 L 47.1875 -136.8125 C 47.1875 -138.238281 46.707031 -139.425781 45.75 -140.375 C 44.800781 -141.332031 43.613281 -141.8125 42.1875 -141.8125 L 37.1875 -141.8125 Z M 37.1875 -79.609375 "/></g></g></g><g fill="#ffffff" fill-opacity="1"><g transform="translate(442.43339, 191.517417)"><g><path d="M 7.15625 0 L 7.15625 -133.953125 L 37.1875 -133.953125 L 37.1875 0 Z M 7.15625 -144.203125 L 7.15625 -166.84375 L 37.1875 -166.84375 L 37.1875 -144.203125 Z M 7.15625 -144.203125 "/></g></g></g><g fill="#ffffff" fill-opacity="1"><g transform="translate(485.574369, 191.517417)"><g><path d="M 27.40625 0 C 20.738281 0 15.097656 -2.300781 10.484375 -6.90625 C 5.878906 -11.519531 3.578125 -17.160156 3.578125 -23.828125 L 3.578125 -57.203125 L 33.609375 -57.203125 L 33.609375 -30.265625 C 33.609375 -28.835938 34.082031 -27.644531 35.03125 -26.6875 C 35.988281 -25.738281 37.179688 -25.265625 38.609375 -25.265625 C 40.035156 -25.265625 41.222656 -25.738281 42.171875 -26.6875 C 43.128906 -27.644531 43.609375 -28.835938 43.609375 -30.265625 L 43.609375 -53.859375 C 43.609375 -56.398438 43.289062 -58.46875 42.65625 -60.0625 C 42.019531 -61.65625 40.59375 -63.164062 38.375 -64.59375 L 17.40625 -79.375 C 12.3125 -82.707031 8.734375 -86.796875 6.671875 -91.640625 C 4.609375 -96.484375 3.578125 -102.40625 3.578125 -109.40625 L 3.578125 -143 C 3.578125 -149.675781 5.878906 -155.316406 10.484375 -159.921875 C 15.097656 -164.535156 20.738281 -166.84375 27.40625 -166.84375 L 49.8125 -166.84375 C 56.488281 -166.84375 62.128906 -164.535156 66.734375 -159.921875 C 71.335938 -155.316406 73.640625 -149.675781 73.640625 -143 L 73.640625 -109.640625 L 43.609375 -109.640625 L 43.609375 -136.8125 C 43.609375 -138.238281 43.128906 -139.425781 42.171875 -140.375 C 41.222656 -141.332031 40.035156 -141.8125 38.609375 -141.8125 C 37.179688 -141.8125 35.988281 -141.332031 35.03125 -140.375 C 34.082031 -139.425781 33.609375 -138.238281 33.609375 -136.8125 L 33.609375 -112.5 C 33.609375 -109.632812 34.125 -107.328125 35.15625 -105.578125 C 36.1875 -103.835938 37.65625 -102.332031 39.5625 -101.0625 L 60.296875 -87 C 65.066406 -83.976562 68.484375 -80.082031 70.546875 -75.3125 C 72.609375 -70.550781 73.640625 -65.390625 73.640625 -59.828125 L 73.640625 -23.828125 C 73.640625 -17.160156 71.335938 -11.519531 66.734375 -6.90625 C 62.128906 -2.300781 56.488281 0 49.8125 0 Z M 27.40625 0 "/></g></g></g><g fill="#ffffff" fill-opacity="1"><g transform="translate(562.799103, 191.517417)"><g><path d="M 7.15625 0 L 7.15625 -166.84375 L 70.3125 -166.84375 L 70.3125 -141.578125 L 37.1875 -141.578125 L 37.1875 -96.53125 L 60.78125 -96.53125 L 60.78125 -71.265625 L 37.1875 -71.265625 L 37.1875 -25.265625 L 70.3125 -25.265625 L 70.3125 0 Z M 7.15625 0 "/></g></g></g><g fill="#ffffff" fill-opacity="1"><g transform="translate(636.686974, 191.517417)"><g/></g></g><g fill="#ffffff" fill-opacity="1"><g transform="translate(687.931808, 191.517417)"><g><path d="M 27.40625 0 C 20.738281 0 15.097656 -2.300781 10.484375 -6.90625 C 5.878906 -11.519531 3.578125 -17.160156 3.578125 -23.828125 L 3.578125 -57.203125 L 33.609375 -57.203125 L 33.609375 -30.265625 C 33.609375 -28.835938 34.082031 -27.644531 35.03125 -26.6875 C 35.988281 -25.738281 37.179688 -25.265625 38.609375 -25.265625 C 40.035156 -25.265625 41.222656 -25.738281 42.171875 -26.6875 C 43.128906 -27.644531 43.609375 -28.835938 43.609375 -30.265625 L 43.609375 -53.859375 C 43.609375 -56.398438 43.289062 -58.46875 42.65625 -60.0625 C 42.019531 -61.65625 40.59375 -63.164062 38.375 -64.59375 L 17.40625 -79.375 C 12.3125 -82.707031 8.734375 -86.796875 6.671875 -91.640625 C 4.609375 -96.484375 3.578125 -102.40625 3.578125 -109.40625 L 3.578125 -143 C 3.578125 -149.675781 5.878906 -155.316406 10.484375 -159.921875 C 15.097656 -164.535156 20.738281 -166.84375 27.40625 -166.84375 L 49.8125 -166.84375 C 56.488281 -166.84375 62.128906 -164.535156 66.734375 -159.921875 C 71.335938 -155.316406 73.640625 -149.675781 73.640625 -143 L 73.640625 -109.640625 L 43.609375 -109.640625 L 43.609375 -136.8125 C 43.609375 -138.238281 43.128906 -139.425781 42.171875 -140.375 C 41.222656 -141.332031 40.035156 -141.8125 38.609375 -141.8125 C 37.179688 -141.8125 35.988281 -141.332031 35.03125 -140.375 C 34.082031 -139.425781 33.609375 -138.238281 33.609375 -136.8125 L 33.609375 -112.5 C 33.609375 -109.632812 34.125 -107.328125 35.15625 -105.578125 C 36.1875 -103.835938 37.65625 -102.332031 39.5625 -101.0625 L 60.296875 -87 C 65.066406 -83.976562 68.484375 -80.082031 70.546875 -75.3125 C 72.609375 -70.550781 73.640625 -65.390625 73.640625 -59.828125 L 73.640625 -23.828125 C 73.640625 -17.160156 71.335938 -11.519531 66.734375 -6.90625 C 62.128906 -2.300781 56.488281 0 49.8125 0 Z M 27.40625 0 "/></g></g></g><g fill="#ffffff" fill-opacity="1"><g transform="translate(761.581276, 191.517417)"><g><path d="M 20.265625 0 L 20.265625 -141.578125 L 3.578125 -141.578125 L 3.578125 -166.84375 L 66.96875 -166.84375 L 66.96875 -141.578125 L 50.296875 -141.578125 L 50.296875 0 Z M 20.265625 0 "/></g></g></g><g fill="#ffffff" fill-opacity="1"><g transform="translate(832.132329, 191.517417)"><g><path d="M 30.984375 0 C 24.304688 0 18.664062 -2.300781 14.0625 -6.90625 C 9.457031 -11.519531 7.15625 -17.160156 7.15625 -23.828125 L 7.15625 -167.078125 L 37.1875 -167.078125 L 37.1875 -30.265625 C 37.1875 -28.835938 37.660156 -27.644531 38.609375 -26.6875 C 39.566406 -25.738281 40.757812 -25.265625 42.1875 -25.265625 C 43.613281 -25.265625 44.800781 -25.738281 45.75 -26.6875 C 46.707031 -27.644531 47.1875 -28.835938 47.1875 -30.265625 L 47.1875 -167.078125 L 77.21875 -167.078125 L 77.21875 -23.828125 C 77.21875 -17.160156 74.914062 -11.519531 70.3125 -6.90625 C 65.707031 -2.300781 60.066406 0 53.390625 0 Z M 30.984375 0 "/></g></g></g><g fill="#ffffff" fill-opacity="1"><g transform="translate(916.507549, 191.517417)"><g><path d="M 7.15625 0 L 7.15625 -166.84375 L 53.390625 -166.84375 C 60.066406 -166.84375 65.707031 -164.535156 70.3125 -159.921875 C 74.914062 -155.316406 77.21875 -149.675781 77.21875 -143 L 77.21875 -23.828125 C 77.21875 -17.160156 74.914062 -11.519531 70.3125 -6.90625 C 65.707031 -2.300781 60.066406 0 53.390625 0 Z M 37.1875 -25.265625 L 42.1875 -25.265625 C 43.613281 -25.265625 44.800781 -25.738281 45.75 -26.6875 C 46.707031 -27.644531 47.1875 -28.835938 47.1875 -30.265625 L 47.1875 -136.8125 C 47.1875 -138.238281 46.707031 -139.425781 45.75 -140.375 C 44.800781 -141.332031 43.613281 -141.8125 42.1875 -141.8125 L 37.1875 -141.8125 Z M 37.1875 -25.265625 "/></g></g></g><g fill="#ffffff" fill-opacity="1"><g transform="translate(1000.882673, 191.517417)"><g><path d="M 7.15625 0 L 7.15625 -133.953125 L 37.1875 -133.953125 L 37.1875 0 Z M 7.15625 -144.203125 L 7.15625 -166.84375 L 37.1875 -166.84375 L 37.1875 -144.203125 Z M 7.15625 -144.203125 "/></g></g></g><g fill="#ffffff" fill-opacity="1"><g transform="translate(1044.023652, 191.517417)"><g><path d="M 30.984375 0 C 24.304688 0 18.664062 -2.300781 14.0625 -6.90625 C 9.457031 -11.519531 7.15625 -17.160156 7.15625 -23.828125 L 7.15625 -143 C 7.15625 -149.675781 9.457031 -155.316406 14.0625 -159.921875 C 18.664062 -164.535156 24.304688 -166.84375 30.984375 -166.84375 L 53.390625 -166.84375 C 60.066406 -166.84375 65.707031 -164.535156 70.3125 -159.921875 C 74.914062 -155.316406 77.21875 -149.675781 77.21875 -143 L 77.21875 -23.828125 C 77.21875 -17.160156 74.914062 -11.519531 70.3125 -6.90625 C 65.707031 -2.300781 60.066406 0 53.390625 0 Z M 42.1875 -25.265625 C 43.613281 -25.265625 44.800781 -25.738281 45.75 -26.6875 C 46.707031 -27.644531 47.1875 -28.835938 47.1875 -30.265625 L 47.1875 -136.8125 C 47.1875 -138.238281 46.707031 -139.425781 45.75 -140.375 C 44.800781 -141.332031 43.613281 -141.8125 42.1875 -141.8125 C 40.757812 -141.8125 39.566406 -141.332031 38.609375 -140.375 C 37.660156 -139.425781 37.1875 -138.238281 37.1875 -136.8125 L 37.1875 -30.265625 C 37.1875 -28.835938 37.660156 -27.644531 38.609375 -26.6875 C 39.566406 -25.738281 40.757812 -25.265625 42.1875 -25.265625 Z M 42.1875 -25.265625 "/></g></g></g></g></g><g transform="matrix(1, 0, 0, 1, 242, 300)"><g clip-path="url(#c1d59490c6)"><g fill="#ffffff" fill-opacity="1"><g transform="translate(1.072134, 74.368949)"><g><path d="M 33.53125 -68.625 L 40.59375 -68.625 L 34.515625 0 L 23.828125 0 L 21.078125 -31.46875 L 18.234375 0 L 7.546875 0 L 1.46875 -68.625 L 8.53125 -68.625 L 12.9375 -19.90625 L 17.25 -68.625 L 24.8125 -68.625 L 29.21875 -19.90625 Z M 33.53125 -68.625 "/></g></g></g><g fill="#ffffff" fill-opacity="1"><g transform="translate(66.075553, 74.368949)"><g><path d="M 20.484375 -61.578125 L 9.515625 -61.578125 L 9.515625 -46.1875 L 20.484375 -46.1875 L 20.484375 -39.125 L 9.515625 -39.125 L 9.515625 -7.0625 L 20.484375 -7.0625 L 20.484375 0 L 2.453125 0 L 2.453125 -68.625 L 20.484375 -68.625 Z M 20.484375 -61.578125 "/></g></g></g><g fill="#ffffff" fill-opacity="1"><g transform="translate(112.058627, 74.368949)"><g/></g></g><g fill="#ffffff" fill-opacity="1"><g transform="translate(150.590433, 74.368949)"><g><path d="M 2.453125 -68.625 L 22.9375 -68.625 L 22.9375 -43.046875 L 19.40625 -37.359375 L 22.9375 -31.671875 L 22.9375 0 L 2.453125 0 Z M 15.78125 -7.0625 L 15.78125 -31.671875 L 14.515625 -33.828125 L 9.515625 -33.828125 L 9.515625 -7.0625 Z M 15.78125 -43.046875 L 15.78125 -61.578125 L 9.515625 -61.578125 L 9.515625 -40.890625 L 14.515625 -40.890625 Z M 15.78125 -43.046875 "/></g></g></g><g fill="#ffffff" fill-opacity="1"><g transform="translate(198.92654, 74.368949)"><g><path d="M 15.78125 -68.625 L 22.9375 -68.625 L 22.9375 0 L 2.453125 0 L 2.453125 -68.625 L 9.515625 -68.625 L 9.515625 -7.0625 L 15.78125 -7.0625 Z M 15.78125 -68.625 "/></g></g></g><g fill="#ffffff" fill-opacity="1"><g transform="translate(247.262648, 74.368949)"><g><path d="M 9.515625 0 L 2.453125 0 L 2.453125 -68.625 L 9.515625 -68.625 Z M 9.515625 0 "/></g></g></g><g fill="#ffffff" fill-opacity="1"><g transform="translate(282.264917, 74.368949)"><g><path d="M 15.78125 -22.453125 L 22.9375 -22.453125 L 22.9375 0 L 2.453125 0 L 2.453125 -68.625 L 9.515625 -68.625 L 9.515625 -7.0625 L 15.78125 -7.0625 Z M 15.78125 -22.453125 "/></g></g></g><g fill="#ffffff" fill-opacity="1"><g transform="translate(329.620594, 74.368949)"><g><path d="M 15.78125 -53.34375 L 22.9375 -53.34375 L 22.9375 0 L 2.453125 0 L 2.453125 -68.625 L 16.28125 -68.625 L 22.9375 -53.34375 L 15.78125 -53.34375 L 12.25 -61.578125 L 9.515625 -61.578125 L 9.515625 -7.0625 L 15.78125 -7.0625 Z M 15.78125 -53.34375 "/></g></g></g><g fill="#ffffff" fill-opacity="1"><g transform="translate(377.956688, 74.368949)"><g/></g></g><g fill="#ffffff" fill-opacity="1"><g transform="translate(416.488506, 74.368949)"><g><path d="M 16.46875 -68.625 L 23.53125 -68.625 L 16.171875 -16.078125 L 16.171875 0 L 9.015625 0 L 9.015625 -16.078125 L 0.984375 -68.625 L 8.046875 -68.625 L 12.25 -36.859375 Z M 16.46875 -68.625 "/></g></g></g><g fill="#ffffff" fill-opacity="1"><g transform="translate(463.942208, 74.368949)"><g><path d="M 2.453125 -68.625 L 22.9375 -68.625 L 22.9375 0 L 2.453125 0 Z M 9.515625 -7.0625 L 15.78125 -7.0625 L 15.78125 -61.578125 L 9.515625 -61.578125 Z M 9.515625 -7.0625 "/></g></g></g><g fill="#ffffff" fill-opacity="1"><g transform="translate(512.278327, 74.368949)"><g><path d="M 15.78125 -68.625 L 22.9375 -68.625 L 22.9375 0 L 2.453125 0 L 2.453125 -68.625 L 9.515625 -68.625 L 9.515625 -7.0625 L 15.78125 -7.0625 Z M 15.78125 -68.625 "/></g></g></g><g fill="#ffffff" fill-opacity="1"><g transform="translate(560.614446, 74.368949)"><g/></g></g><g fill="#ffffff" fill-opacity="1"><g transform="translate(599.14624, 74.368949)"><g><path d="M 22.9375 -27.75 L 16.96875 -27.75 L 22.9375 0 L 15.78125 0 L 9.796875 -27.75 L 9.515625 -27.75 L 9.515625 0 L 2.453125 0 L 2.453125 -68.625 L 22.9375 -68.625 Z M 15.78125 -61.578125 L 9.515625 -61.578125 L 9.515625 -34.8125 L 15.78125 -34.8125 Z M 15.78125 -61.578125 "/></g></g></g><g fill="#ffffff" fill-opacity="1"><g transform="translate(647.482359, 74.368949)"><g><path d="M 9.515625 0 L 2.453125 0 L 2.453125 -68.625 L 9.515625 -68.625 Z M 9.515625 0 "/></g></g></g><g fill="#ffffff" fill-opacity="1"><g transform="translate(682.48458, 74.368949)"><g><path d="M 2.453125 -68.625 L 22.9375 -68.625 L 22.9375 -49.609375 L 15.78125 -49.609375 L 15.78125 -61.578125 L 9.515625 -61.578125 L 9.515625 -40.890625 L 22.9375 -40.890625 L 22.9375 0 L 2.453125 0 L 2.453125 -19.015625 L 9.515625 -19.015625 L 9.515625 -7.0625 L 15.78125 -7.0625 L 15.78125 -33.828125 L 2.453125 -33.828125 Z M 2.453125 -68.625 "/></g></g></g><g fill="#ffffff" fill-opacity="1"><g transform="translate(730.820699, 74.368949)"><g><path d="M 20.484375 -61.578125 L 9.515625 -61.578125 L 9.515625 -46.1875 L 20.484375 -46.1875 L 20.484375 -39.125 L 9.515625 -39.125 L 9.515625 -7.0625 L 20.484375 -7.0625 L 20.484375 0 L 2.453125 0 L 2.453125 -68.625 L 20.484375 -68.625 Z M 20.484375 -61.578125 "/></g></g></g></g></g></svg>